<mxfile host="app.diagrams.net" modified="2023-01-04T00:35:50.200Z" agent="5.0 (Windows NT 10.0; Win64; x64) AppleWebKit/537.36 (KHTML, like Gecko) Chrome/108.0.0.0 Safari/537.36" etag="UeNk-wns3CMVK-YJhcKN" version="20.8.0" type="github">
  <diagram name="Page-1" id="74e2e168-ea6b-b213-b513-2b3c1d86103e">
    <mxGraphModel dx="1195" dy="648" grid="1" gridSize="10" guides="1" tooltips="1" connect="1" arrows="1" fold="1" page="1" pageScale="1" pageWidth="1100" pageHeight="850" background="none" math="0" shadow="0">
      <root>
        <mxCell id="0" />
        <mxCell id="1" parent="0" />
        <mxCell id="Jj3haPxhdknoeQk6MOxt-37" value="" style="swimlane;html=1;childLayout=stackLayout;startSize=20;rounded=0;shadow=0;labelBackgroundColor=none;strokeWidth=1;fontFamily=Verdana;fontSize=8;align=center;" vertex="1" parent="1">
          <mxGeometry x="240" y="20" width="710" height="750" as="geometry">
            <mxRectangle x="220" width="50" height="40" as="alternateBounds" />
          </mxGeometry>
        </mxCell>
        <mxCell id="Jj3haPxhdknoeQk6MOxt-38" value="Lane 1" style="swimlane;html=1;startSize=20;fillColor=#d5e8d4;strokeColor=#82b366;" vertex="1" parent="Jj3haPxhdknoeQk6MOxt-37">
          <mxGeometry y="20" width="160" height="730" as="geometry" />
        </mxCell>
        <mxCell id="Jj3haPxhdknoeQk6MOxt-39" style="edgeStyle=orthogonalEdgeStyle;rounded=0;orthogonalLoop=1;jettySize=auto;html=1;exitX=0.5;exitY=1;exitDx=0;exitDy=0;entryX=0.5;entryY=0;entryDx=0;entryDy=0;fontSize=12;" edge="1" parent="Jj3haPxhdknoeQk6MOxt-38" source="Jj3haPxhdknoeQk6MOxt-40" target="Jj3haPxhdknoeQk6MOxt-41">
          <mxGeometry relative="1" as="geometry" />
        </mxCell>
        <mxCell id="Jj3haPxhdknoeQk6MOxt-40" value="" style="ellipse;whiteSpace=wrap;html=1;fontSize=12;" vertex="1" parent="Jj3haPxhdknoeQk6MOxt-38">
          <mxGeometry x="20" y="50" width="120" height="80" as="geometry" />
        </mxCell>
        <mxCell id="Jj3haPxhdknoeQk6MOxt-41" value="" style="shape=parallelogram;perimeter=parallelogramPerimeter;whiteSpace=wrap;html=1;fixedSize=1;fontSize=12;" vertex="1" parent="Jj3haPxhdknoeQk6MOxt-38">
          <mxGeometry x="20" y="200" width="120" height="60" as="geometry" />
        </mxCell>
        <mxCell id="Jj3haPxhdknoeQk6MOxt-55" value="INICIO" style="text;html=1;strokeColor=none;fillColor=none;align=center;verticalAlign=middle;whiteSpace=wrap;rounded=0;fontSize=12;" vertex="1" parent="Jj3haPxhdknoeQk6MOxt-38">
          <mxGeometry x="50" y="75" width="60" height="30" as="geometry" />
        </mxCell>
        <mxCell id="Jj3haPxhdknoeQk6MOxt-42" value="Lane 2" style="swimlane;html=1;startSize=20;" vertex="1" parent="Jj3haPxhdknoeQk6MOxt-37">
          <mxGeometry x="160" y="20" width="190" height="730" as="geometry" />
        </mxCell>
        <mxCell id="Jj3haPxhdknoeQk6MOxt-57" style="edgeStyle=orthogonalEdgeStyle;rounded=0;orthogonalLoop=1;jettySize=auto;html=1;exitX=0.5;exitY=1;exitDx=0;exitDy=0;fontSize=12;" edge="1" parent="Jj3haPxhdknoeQk6MOxt-42" source="Jj3haPxhdknoeQk6MOxt-44" target="Jj3haPxhdknoeQk6MOxt-45">
          <mxGeometry relative="1" as="geometry" />
        </mxCell>
        <mxCell id="Jj3haPxhdknoeQk6MOxt-44" value="" style="rhombus;whiteSpace=wrap;html=1;fontSize=12;" vertex="1" parent="Jj3haPxhdknoeQk6MOxt-42">
          <mxGeometry x="30" y="180" width="120" height="100" as="geometry" />
        </mxCell>
        <mxCell id="Jj3haPxhdknoeQk6MOxt-59" style="edgeStyle=orthogonalEdgeStyle;rounded=0;orthogonalLoop=1;jettySize=auto;html=1;exitX=0.5;exitY=1;exitDx=0;exitDy=0;entryX=0.5;entryY=0;entryDx=0;entryDy=0;fontSize=12;" edge="1" parent="Jj3haPxhdknoeQk6MOxt-42" source="Jj3haPxhdknoeQk6MOxt-45" target="Jj3haPxhdknoeQk6MOxt-60">
          <mxGeometry relative="1" as="geometry">
            <mxPoint x="90.06000000000017" y="490" as="targetPoint" />
          </mxGeometry>
        </mxCell>
        <mxCell id="Jj3haPxhdknoeQk6MOxt-45" value="" style="rounded=0;whiteSpace=wrap;html=1;fontSize=12;" vertex="1" parent="Jj3haPxhdknoeQk6MOxt-42">
          <mxGeometry x="30" y="360" width="120" height="60" as="geometry" />
        </mxCell>
        <mxCell id="Jj3haPxhdknoeQk6MOxt-47" value="&lt;b&gt;NÃƒO&lt;/b&gt;" style="text;html=1;strokeColor=none;fillColor=none;align=center;verticalAlign=middle;whiteSpace=wrap;rounded=0;fontSize=12;rotation=90;" vertex="1" parent="Jj3haPxhdknoeQk6MOxt-42">
          <mxGeometry x="70" y="310" width="40" height="20" as="geometry" />
        </mxCell>
        <mxCell id="Jj3haPxhdknoeQk6MOxt-60" value="" style="rhombus;whiteSpace=wrap;html=1;fontSize=12;" vertex="1" parent="Jj3haPxhdknoeQk6MOxt-42">
          <mxGeometry x="30" y="500" width="120" height="100" as="geometry" />
        </mxCell>
        <mxCell id="Jj3haPxhdknoeQk6MOxt-49" value="Lane 3" style="swimlane;html=1;startSize=20;" vertex="1" parent="Jj3haPxhdknoeQk6MOxt-37">
          <mxGeometry x="350" y="20" width="200" height="730" as="geometry" />
        </mxCell>
        <mxCell id="Jj3haPxhdknoeQk6MOxt-50" value="" style="rounded=0;whiteSpace=wrap;html=1;fontSize=12;" vertex="1" parent="Jj3haPxhdknoeQk6MOxt-49">
          <mxGeometry x="50" y="200" width="120" height="60" as="geometry" />
        </mxCell>
        <mxCell id="Jj3haPxhdknoeQk6MOxt-52" value="" style="ellipse;whiteSpace=wrap;html=1;fontSize=12;" vertex="1" parent="Jj3haPxhdknoeQk6MOxt-49">
          <mxGeometry x="45" y="510" width="120" height="80" as="geometry" />
        </mxCell>
        <mxCell id="Jj3haPxhdknoeQk6MOxt-56" value="FINAL" style="text;html=1;strokeColor=none;fillColor=none;align=center;verticalAlign=middle;whiteSpace=wrap;rounded=0;fontSize=12;" vertex="1" parent="Jj3haPxhdknoeQk6MOxt-49">
          <mxGeometry x="75" y="535" width="60" height="30" as="geometry" />
        </mxCell>
        <mxCell id="Jj3haPxhdknoeQk6MOxt-46" value="&lt;b&gt;SIM&lt;/b&gt;" style="text;html=1;strokeColor=none;fillColor=none;align=center;verticalAlign=middle;whiteSpace=wrap;rounded=0;fontSize=12;" vertex="1" parent="Jj3haPxhdknoeQk6MOxt-49">
          <mxGeometry x="-30" y="215" width="50" height="30" as="geometry" />
        </mxCell>
        <mxCell id="Jj3haPxhdknoeQk6MOxt-67" style="edgeStyle=orthogonalEdgeStyle;rounded=0;orthogonalLoop=1;jettySize=auto;html=1;exitX=0.5;exitY=1;exitDx=0;exitDy=0;entryX=0.458;entryY=0.015;entryDx=0;entryDy=0;entryPerimeter=0;fontSize=12;" edge="1" parent="Jj3haPxhdknoeQk6MOxt-49" source="Jj3haPxhdknoeQk6MOxt-63" target="Jj3haPxhdknoeQk6MOxt-52">
          <mxGeometry relative="1" as="geometry" />
        </mxCell>
        <mxCell id="Jj3haPxhdknoeQk6MOxt-63" value="" style="rhombus;whiteSpace=wrap;html=1;fontSize=12;" vertex="1" parent="Jj3haPxhdknoeQk6MOxt-49">
          <mxGeometry x="35" y="335" width="130" height="100" as="geometry" />
        </mxCell>
        <mxCell id="Jj3haPxhdknoeQk6MOxt-64" style="edgeStyle=orthogonalEdgeStyle;rounded=0;orthogonalLoop=1;jettySize=auto;html=1;exitX=1;exitY=0.5;exitDx=0;exitDy=0;fontSize=12;entryX=1;entryY=0.5;entryDx=0;entryDy=0;" edge="1" parent="Jj3haPxhdknoeQk6MOxt-49" source="Jj3haPxhdknoeQk6MOxt-50" target="Jj3haPxhdknoeQk6MOxt-63">
          <mxGeometry relative="1" as="geometry">
            <mxPoint x="280" y="390" as="targetPoint" />
            <Array as="points">
              <mxPoint x="250" y="230" />
              <mxPoint x="250" y="385" />
            </Array>
          </mxGeometry>
        </mxCell>
        <mxCell id="Jj3haPxhdknoeQk6MOxt-51" value="Lane 4" style="swimlane;html=1;startSize=20;" vertex="1" parent="Jj3haPxhdknoeQk6MOxt-37">
          <mxGeometry x="550" y="20" width="160" height="730" as="geometry" />
        </mxCell>
        <mxCell id="Jj3haPxhdknoeQk6MOxt-68" value="&lt;b&gt;SIM&lt;/b&gt;" style="text;html=1;strokeColor=none;fillColor=none;align=center;verticalAlign=middle;whiteSpace=wrap;rounded=0;fontSize=12;rotation=90;" vertex="1" parent="Jj3haPxhdknoeQk6MOxt-51">
          <mxGeometry x="20" y="280" width="60" height="30" as="geometry" />
        </mxCell>
        <mxCell id="Jj3haPxhdknoeQk6MOxt-53" style="edgeStyle=orthogonalEdgeStyle;rounded=0;orthogonalLoop=1;jettySize=auto;html=1;exitX=1;exitY=0.5;exitDx=0;exitDy=0;entryX=0;entryY=0.5;entryDx=0;entryDy=0;fontSize=12;" edge="1" parent="Jj3haPxhdknoeQk6MOxt-37" source="Jj3haPxhdknoeQk6MOxt-41" target="Jj3haPxhdknoeQk6MOxt-44">
          <mxGeometry relative="1" as="geometry" />
        </mxCell>
        <mxCell id="Jj3haPxhdknoeQk6MOxt-58" style="edgeStyle=orthogonalEdgeStyle;rounded=0;orthogonalLoop=1;jettySize=auto;html=1;exitX=1;exitY=0.5;exitDx=0;exitDy=0;entryX=0;entryY=0.5;entryDx=0;entryDy=0;fontSize=12;" edge="1" parent="Jj3haPxhdknoeQk6MOxt-37" source="Jj3haPxhdknoeQk6MOxt-44" target="Jj3haPxhdknoeQk6MOxt-50">
          <mxGeometry relative="1" as="geometry" />
        </mxCell>
        <mxCell id="Jj3haPxhdknoeQk6MOxt-61" style="edgeStyle=orthogonalEdgeStyle;rounded=0;orthogonalLoop=1;jettySize=auto;html=1;exitX=1;exitY=0.5;exitDx=0;exitDy=0;entryX=0;entryY=0.5;entryDx=0;entryDy=0;fontSize=12;" edge="1" parent="Jj3haPxhdknoeQk6MOxt-37" source="Jj3haPxhdknoeQk6MOxt-60" target="Jj3haPxhdknoeQk6MOxt-52">
          <mxGeometry relative="1" as="geometry" />
        </mxCell>
      </root>
    </mxGraphModel>
  </diagram>
</mxfile>
